<svg viewBox="0 0 64 64" xmlns="http://www.w3.org/2000/svg"><path d="m46.5 7.1c-3.2-8.5-13.5-4.7-14.5-.5-1.3-4.5-11.4-7.9-14.5.4-3.5 9.3 13.3 17.6 14.5 19 1.2-1.1 18-9.8 14.5-18.9" fill="#ff5a79"/><path d="m17 22c-9.7 0-15 6.3-15 14.7v24.5h30v-24.5c0-12.4-8.1-12.2-8.1-12.2s-.6-2.5-6.9-2.5z" fill="#ffb300"/><path d="m2 47.8v14.2h30v-1.2c0-5.8-30-13-30-13" fill="#c2185b"/><path d="m5.3 37.1c.1.6.2 1.2.4 1.5.3.6.9.9.9.9s11.8-4.1 17.8-9.9c0 0 5.9 1.9 5.9 14.2 0 5.2-3.7 11.3-9.6 11.3-6 0-14.8-4.2-14.8-11.7-2.2-.1-2.9-1.6-2.9-3.4 0-2.9 1.3-3.1 2.3-2.9" fill="#ffdd67"/><path d="m29.2 39.9c-.9-2-2.2-3-3.6-3s-2.7 1-3.6 3c-.1.2.4.6.6.4.9-.7 1.9-1 3-1s2.1.3 3 1c.2.1.7-.2.6-.4m-10.8 0c-.9-2-2.2-3-3.6-3s-2.7 1-3.6 3c-.1.2.4.6.6.4.9-.7 1.9-1 3-1s2.1.3 3 1c.2.1.7-.2.6-.4m5.8 9.5c.8-.8-.9-1.4-.9-2.8s1.6-2 .9-2.8c-.9-.9-2.9-.2-4.1-1.5 0 1 .9 2.2 2.5 2.2 0 0-1.1.4-1.1 2.2 0 1.7 1.1 2.2 1.1 2.2-1.6 0-2.5 1.1-2.5 2.2 1.2-1.4 3.2-.7 4.1-1.7" fill="#937237"/><path d="m47 22c9.7 0 15 6.3 15 14.7v24.5h-30v-24.5c0-12.4 8.1-12.2 8.1-12.2s.6-2.5 6.9-2.5z" fill="#ffb300"/><path d="m62 47.8v14.2h-30v-1.2c0-5.8 30-13 30-13" fill="#c2185b"/><path d="m58.7 37.1c-.1.6-.2 1.2-.4 1.5-.3.6-.9.9-.9.9s-11.8-4.1-17.8-9.9c0 0-5.9 1.9-5.9 14.2 0 5.2 3.7 11.3 9.6 11.3 6 0 14.8-4.2 14.8-11.7 2.2-.2 2.9-1.7 2.9-3.5 0-2.8-1.3-3-2.3-2.8" fill="#ffdd67"/><path d="m34.8 39.9c.9-2 2.2-3 3.6-3s2.7 1 3.6 3c.1.2-.4.6-.6.4-.9-.7-1.9-1-3-1s-2.1.3-3 1c-.2.1-.7-.2-.6-.4m10.8 0c.9-2 2.2-3 3.6-3s2.7 1 3.6 3c.1.2-.4.6-.6.4-.9-.7-1.9-1-3-1s-2.1.3-3 1c-.2.1-.7-.2-.6-.4m-5.8 9.5c-.8-.8.9-1.4.9-2.8s-1.6-2-.9-2.8c.9-.9 2.9-.2 4.1-1.5 0 1-.9 2.2-2.5 2.2 0 0 1.1.4 1.1 2.2 0 1.7-1.1 2.2-1.1 2.2 1.6 0 2.5 1.1 2.5 2.2-1.2-1.4-3.2-.7-4.1-1.7" fill="#937237"/></svg>